<svg width="28" height="28" viewBox="0 0 28 28" fill="none" xmlns="http://www.w3.org/2000/svg">
<path d="M25.3333 0.0393219H2.53333C1.13367 0.0393219 0 1.17299 0 2.57266V25.3727C0 26.7723 1.13367 27.906 2.53333 27.906H15.2V16.506H11.4V12.706H15.2V10.6654C15.2 6.80206 17.0823 5.10599 20.2933 5.10599C21.831 5.10599 22.6442 5.21999 23.0293 5.27192V8.90599H20.8392C19.4763 8.90599 19 9.62546 19 11.0821V12.706H22.9951L22.4529 16.506H19V27.906H25.3333C26.733 27.906 27.8667 26.7723 27.8667 25.3727V2.57266C27.8667 1.17299 26.7317 0.0393219 25.3333 0.0393219Z" fill="white"/>
</svg>
