<svg width="31" height="31" viewBox="0 0 31 31" fill="none" xmlns="http://www.w3.org/2000/svg">
<mask id="path-1-inside-1_154_552" fill="white">
<path d="M8.93864 0.0395508C4.0321 0.0395508 0 4.06626 0 8.97819V21.5009C0 26.4074 4.02671 30.4396 8.93864 30.4396H21.4614C26.3679 30.4396 30.4 26.4128 30.4 21.5009V8.97819C30.4 4.07165 26.3733 0.0395508 21.4614 0.0395508H8.93864ZM8.93864 2.80319H21.4614C24.8781 2.80319 27.6364 5.56143 27.6364 8.97819V21.5009C27.6364 24.9177 24.8781 27.6759 21.4614 27.6759H8.93864C5.52188 27.6759 2.76364 24.9177 2.76364 21.5009V8.97819C2.76364 5.56143 5.52188 2.80319 8.93864 2.80319ZM23.3614 5.82591C22.6651 5.82591 22.1091 6.38188 22.1091 7.07819C22.1091 7.77449 22.6651 8.33046 23.3614 8.33046C24.0577 8.33046 24.6136 7.77449 24.6136 7.07819C24.6136 6.38188 24.0577 5.82591 23.3614 5.82591ZM15.2 6.94864C10.6389 6.94864 6.90909 10.6785 6.90909 15.2396C6.90909 19.8006 10.6389 23.5305 15.2 23.5305C19.7611 23.5305 23.4909 19.8006 23.4909 15.2396C23.4909 10.6785 19.7611 6.94864 15.2 6.94864ZM15.2 9.71228C18.2713 9.71228 20.7273 12.1682 20.7273 15.2396C20.7273 18.3109 18.2713 20.7668 15.2 20.7668C12.1287 20.7668 9.67273 18.3109 9.67273 15.2396C9.67273 12.1682 12.1287 9.71228 15.2 9.71228Z"/>
</mask>
<path d="M8.93864 0.0395508C4.0321 0.0395508 0 4.06626 0 8.97819V21.5009C0 26.4074 4.02671 30.4396 8.93864 30.4396H21.4614C26.3679 30.4396 30.4 26.4128 30.4 21.5009V8.97819C30.4 4.07165 26.3733 0.0395508 21.4614 0.0395508H8.93864ZM8.93864 2.80319H21.4614C24.8781 2.80319 27.6364 5.56143 27.6364 8.97819V21.5009C27.6364 24.9177 24.8781 27.6759 21.4614 27.6759H8.93864C5.52188 27.6759 2.76364 24.9177 2.76364 21.5009V8.97819C2.76364 5.56143 5.52188 2.80319 8.93864 2.80319ZM23.3614 5.82591C22.6651 5.82591 22.1091 6.38188 22.1091 7.07819C22.1091 7.77449 22.6651 8.33046 23.3614 8.33046C24.0577 8.33046 24.6136 7.77449 24.6136 7.07819C24.6136 6.38188 24.0577 5.82591 23.3614 5.82591ZM15.2 6.94864C10.6389 6.94864 6.90909 10.6785 6.90909 15.2396C6.90909 19.8006 10.6389 23.5305 15.2 23.5305C19.7611 23.5305 23.4909 19.8006 23.4909 15.2396C23.4909 10.6785 19.7611 6.94864 15.2 6.94864ZM15.2 9.71228C18.2713 9.71228 20.7273 12.1682 20.7273 15.2396C20.7273 18.3109 18.2713 20.7668 15.2 20.7668C12.1287 20.7668 9.67273 18.3109 9.67273 15.2396C9.67273 12.1682 12.1287 9.71228 15.2 9.71228Z" fill="white" stroke="white" stroke-width="6.25" mask="url(#path-1-inside-1_154_552)"/>
</svg>
