<svg xmlns="http://www.w3.org/2000/svg" viewBox="0 0 503.44 512"><defs><style>.cls-1{fill:#222;}</style></defs><g id="レイヤー_2" data-name="レイヤー 2"><g id="_10" data-name="10"><path class="cls-1" d="M358.74,0h-214A144.69,144.69,0,0,0,0,144.7V367.3A144.69,144.69,0,0,0,144.69,512H358.74a144.69,144.69,0,0,0,144.7-144.7V144.69A144.69,144.69,0,0,0,358.74,0ZM51.37,144.7a93.42,93.42,0,0,1,93.32-93.33H358.74a93.43,93.43,0,0,1,93.33,93.33V367.3a93.43,93.43,0,0,1-93.33,93.33h-214A93.42,93.42,0,0,1,51.37,367.3Z"/><path class="cls-1" d="M251.72,387.85c72.7,0,131.85-59.15,131.85-131.85S324.42,124.14,251.72,124.14,119.87,183.3,119.87,256,179,387.85,251.72,387.85Zm0-222.61A90.76,90.76,0,1,1,161,256,90.86,90.86,0,0,1,251.72,165.24Z"/><circle class="cls-1" cx="387.43" cy="120.3" r="29.54"/></g></g></svg>