<?xml version="1.0" encoding="UTF-8"?><svg id="_レイヤー_2" xmlns="http://www.w3.org/2000/svg" viewBox="0 0 468.66 447.72"><defs><style>.cls-1{fill:#333;}</style></defs><g id="_レイヤーグループ"><g><g><path class="cls-1" d="M42.59,352.41c2.56,0,4.6,2.05,4.58,4.54-.03,3.51-1.29,6.81-3.35,9.97-2.42,3.71-4.52,7.62-6.6,11.52-1.44,2.68-1.89,6.61-.05,8.12,3.43,2.81,4.26-2.18,6.14-3.61,5.11-3.88,5.72-11.16,11.6-14.85,3.24-2.03,5.05-1.5,7.66,.69,2.87,2.4,1.42,3.6,.37,6.48-1.99,5.46-5.18,7.61-10.16,10.24-2.85,1.51-10.3,.23-9.53,8.03,.3,3.02-7.32,4.54-6.71,9.45,.8,6.45,8.34,5.39,11.82,9.05,.66,.69,2.09,.75,3.19,.97,2.59,.51,6.71-1.49,6.78,3.25,.09,6-4.93,3.2-7.91,3.91-4.24,1.01-6.77-1.49-9.13-4.22-2.99-3.46-8.81-6.05-11.13-4.95-4.54,2.15-12.04,2.11-12.39,10.37-.08,1.86-2.26,3.64-4.4,5.72-2.1,2.04-4.79,3.34-7.73,3.77-.11,.02-.21,.03-.32,.05-4.75,.87-6.45-.92-4.59-6.29,2.75-3.11,5.03-5.1,6.33-7.58,5.62-10.71,9.93-22.22,16.66-32.19,6.48-9.59,8.92-20.85,15.02-30.43,.81-1.28,2.29-2.02,3.84-2.02h0Z"/><path class="cls-1" d="M323.61,447.68c-2.2,.33-4.23-1.27-4.33-3.43-.13-2.57,.09-5.14,1.58-7.93,4.91-9.25,9.28-18.92,8.97-30.03-.28-10.05,5.97-15.5,16.53-15.42,1.86,.01,3.72-.17,5.57-.17,1.63,0,3.16,.86,3.99,2.22,17.81,29.46-17.78,24.15-17.78,24.15,0,0-2.32,7.52-4.29,10.95-2.99,5.2-4.95,10.95-7.22,17.23-.46,1.26-1.59,2.2-2.94,2.41-.02,0-.04,0-.06,0Zm30.24-38.06c1.54-1.98,1.79-4.64,1.27-7.07-.92-4.29-3.16-5.57-6.02-4.1-4.77,2.45-4.1,7.96-7.45,11.27-1.77,1.75,.85,2.29,2.46,2.47,3.08,.35,7.19,.72,9.74-2.57Z"/><path class="cls-1" d="M458.24,412.05c-20.89,13.1-19.6-12.3-32.13-2.61-4.47,3.46-5.83,11.26-11.98,9.49-7.04-2.95-1.96-9.19-3.18-13.79-1.42-4.6-.43-13.97,5.86-13.71,1.6,.44,7.6,2.94,2.25,7.3-2.23,2.98-1.03,7.4,3.38,3.53,14.76-12.96,17.69,9.22,29.57,5.78,3.64-1.05,7.19-3.22,10.35-5.48,3.51-2.51,7.12-.37,6.13,2.19-.51,1.32-6.7,5.86-10.26,7.31Z"/><path class="cls-1" d="M165.55,398.45c8.03-8.53,22.73,3.01,20.53,17.92-.14,.94-.83,1.84-1.79,2.01-6.11,1.07-5.65-21.26-20.81-10.68-.21,.15-.43,.33-.6,.52-3.33,3.85-2.59,11.17-9.25,10.48-7.12-.3-2.67-6.29-3.52-9.66,.22-6.08-8.79-5.54-7.46,.38-1.21,17.95-24.65,14.88-12.03-1.9,2.14-2.62,1.55-8.28,2.13-10.91,.56-2.57,4.16-4.52,6.21-3.22,2.31,1.46,2.34,.93,5.51,3.27,1.47,1.09,3.69-1.46,5.89-2.42,7.58-4.11,8.88,10.01,15.18,4.21Z"/><path class="cls-1" d="M274.4,413.31c0,2.58,1.19,5.4-3.62,6.02-4.46,.58-7.91-2.06-5-7.33,2.26-4.08-.9-5.66-3.23-6.8-2.17-1.07-4.15-.55-6.28,.84-3.36,2.19-4.11,6.59-5.39,9.72-1.37,3.37-3.78,4.2-7.47,3.9-3.39-.27-6.32-.51-5.46-4.59,1.37-6.49,3.9-12.66,4.53-19.41,.34-3.6,8.85-4.95,9.07,.74,.07,1.82,2.77,1.62,4.63,.08,4-3.31,8.09-4.18,13.37-1.25,1.93,1.07,4.85,1.94,4.84,18.07Z"/><path class="cls-1" d="M198.92,400.08c2.96-4.16,8.08-6.42,13.27-6.17,3.65,.17,4.25,4.46,9.97,1.9,2.09-.94,6.27,2.74,1.98,7.49-3.36,3.71-.59,8.59,3.5,11.9,.95,.77,2.56,1.82,.53,3.72-1.02,.96-2.58,.92-4.24,.69-4.19-.57-8.61-5.72-14.87-.29-1.42,1.23-3.35,1.09-5.34,.27-7.33-2.99-9.65-11.93-5.48-18.51,.22-.34,.45-.68,.68-1.02Zm9.66,.88c-3.01,.5-4.4,3.05-3.7,6.5,.33,1.65-.54,4.06,1.55,4.51,1.01,.22,2.68-1.67,3.79-2.85,3.29-3.5,3.53-9.03-1.63-8.17Z"/><path class="cls-1" d="M370.84,398.9c2.96-4.16,8.08-6.42,13.27-6.17,3.65,.17,4.25,4.46,9.97,1.9,2.09-.94,6.27,2.74,1.98,7.49-3.36,3.71-.59,8.59,3.5,11.9,.95,.77,2.56,1.82,.53,3.72-1.02,.96-2.58,.92-4.24,.69-4.19-.57-8.61-5.72-14.87-.29-1.42,1.23-3.35,1.09-5.34,.27-7.33-2.99-9.65-11.93-5.48-18.51,.22-.34,.45-.68,.68-1.02Zm9.66,.88c-3.01,.5-4.4,3.05-3.7,6.5,.33,1.65-.54,4.06,1.55,4.51,1.01,.22,2.68-1.67,3.79-2.85,3.29-3.5,3.53-9.03-1.63-8.17Z"/><path class="cls-1" d="M287.9,400.77c3.02-5.17,4.74-9.28,12.23-9.94,8-.71,12.6,2.84,16.79,7.93,2.88,3.5,3.3,8.11-.95,10.66-7.65,4.59-13.89,11.45-24.77,10.75-6.71-.44-5.22-16.1-3.3-19.39Zm7.66,8.24c1.52,6.08,14.05-.13,13.71-3.49-.38-3.85-2.44-7.49-4.48-6.79-4.5,1.54-11.51,1.21-9.24,10.28Z"/><path class="cls-1" d="M106.24,404.16c-.02,1.93,.88,3.83,2.59,4.82,2.21,1.28,4.72,1.53,6.03,3.88,.72,1.29,3.08,2.45,.47,3.67-1.73,.81-1.67,5.17-5.07,2.59-1.37-1.04-2.93-1.71-4.36-2.5-4.74-2.63-8.38-5.09-13.8-.2-1.61,1.45-4.94,4.68-9.02,4.09-2.14-.31-10.45-7.31-9.64-9.28,.8-1.94,3.74-2.27,4.6-1.43,6.65,6.53,9.13,2.71,12.03-3.49,.44-.93,4.71-.82,5.29-4.75,.04-.3,.15-.59,.3-.88,2.01-3.82,8.08-3.6,9.94,.29,.41,.87,.67,1.9,.66,3.17Z"/><path class="cls-1" d="M81.4,405.98c-6.96,2.66-11.92-10.67-2.23-10.53,3.46-.1,4.5,1.12,5.02,4.81,.46,3.28-.88,5.05-2.79,5.72Z"/></g><g><path class="cls-1" d="M356.26,345.22c-13.77,6.24-57.2-.31-65.55-2.82-24.06-7.23-48.71-12.38-72.53-20.37-33.95-11.39-67.46-24.65-94.92-49.87-12.02-11.04-16.96-26.25-12.45-42.72,4.93-17.99,15.28-33.71,33.94-34.6,11.61-.55,11.02-4.89,10.31-12.92-1.64-18.67-3.58-20.56-21.31-20.81-2.81-.04-5.65-.19-8.42-.23-43.31-.59-39.03-27.95-37.66-30.66,6.02-11.95,15.57-18.17,28.79-24.44,4.31-2.04,7.15-5.26,7.72-10.76,1.08-10.64,6.99-19.58,9.96-29.6,1.55-5.24,4.81-9.73,9.43-12.21,3.2-1.72,6.52-2.7,9.25,.74,3.01,3.79-.41,6.49-2.82,8.87-7.44,7.36-9.28,17.5-11.91,27.25-.95,3.52-1.25,8.57-1.25,8.57,0,0,2.17-3.15,4.65-3.81,5.52-1.48,13.77,1.65,12.33,12.14-1.19,8.66-8.94,10.36-14.34,7.17-2.43-1.44-4.97-5.7-4.97-5.7,0,0-12.59,9.05-18.29,10.32-4.5,1-10.84,5.26-10.84,5.26,0,0,11.16-.02,11.71,12.43,.24,5.49-5.36,9.99-5.36,9.99,0,0,16.19,3.77,39.57,.85,7.33-.92,12.48,1.06,12.87,11.68,.4,11.01,4.25,21.86,6.3,32.84,.64,3.42,2.01,5.39,5.24,5.73,17.46,1.86,33.26,9.57,49.44,15.88,2.18,.85,4.6,2.38,5.94,.18,.68-1.11-1.41-3.9-1.84-6.02-.62-3.04-4.89-6.2-.44-9.21,3.69-2.49,7.77-2.27,10.62,1.52,5.54,7.39,11.62,14.52,12.67,24.61,1.79,17.08,2.36,34.07-1.71,50.86-.58,2.41-1.44,6.39-1.75,8.85-1.76,13.91,.44,21.5,6.85,23.84,13.79,5.04,28.32-.82,34.32-13.71,12.5-26.87,11.41-54.57,5.86-83.04-3.01-15.43-10.6-28.3-17-41.91-1.56-3.33-3.75-6-.3-9.28,4.27-4.07,7.74-.84,10.08,2.14,8.73,11.06,13.93,26.18,18.27,39.69,3.28,10.23,7.07,35.25,7.07,35.25,0,0,22.15,9.77,33.64,13.07,11.26,3.24,19.9,10.09,26.15,21,4.2,7.34,6.46,15.72,7.43,24.24,.57,5.04,1.36,8.79,.15,16.72-.05,.35-1.53,5.15-3.26,9.88-1.98,5.4-5.18,10.18-9.29,14-3.61,3.35-8.37,7.33-12.35,9.13Zm-111.58-28.99s-5.68-6.54-6.95-8.64c-6.35-10.51-8.54-21.28,.08-33.13,1.5-2.06,1.17-5.67,1.52-8.59,.2-1.7-.07-3.57-1.81-4.17-.46-.16-1.67,1.35-2.18,2.31-2.67,5.1-6.86,6.87-10.91,3.13-4.24-3.9-1.35-8.83,.94-12.91,4-7.11,8.36-13.99,12.34-21.11,2.07-3.71-1.7-8.01-6.57-9.1-17.11-3.82-18.06-6.56-21.91-5.02-4.01,1.6-4.29,10.32-7.09,16.52-2.41,5.33-3.73,11.22-6.22,16.49-2.03,4.3-6.2,5.56-10.06,3.19-3.25-2-3.33-5.45-1.45-9.24,3.88-7.82,7.14-15.98,11-23.81,3.24-6.59,.71-7.88-5.29-10.48-18.08-7.83-27.03-8.4-40.09-6.75-11.76,1.49-18.97,6.92-23.12,18.3-8.25,22.6-1.5,41.88,20.03,53.37,18.94,10.1,38.13,19.94,57.94,27.81,9.98,3.97,39.8,11.82,39.8,11.82Zm56.18-15.35c-1.48,4.59-4.21,8.64-7.84,11.59-4.12,3.35-8.9,5.68-13.94,7.65-1.31,.51-7.17,1.62-8.19,2.94,1.31,.77,7.61,2.73,9.02,3.15,22.27,6.69,49.57,12.68,68.08,9.35,1.57-.28,7.13-3.83,9.23-5.35,18.09-13.12,15.54-48.79-2.29-61.65-10.21-7.36-13.17-5.52-18.62,5.96-1.77,3.72-3.55,7.42-5.38,11.1-2.28,4.57-6.08,5.36-10.03,3.43-5.31-2.61-2.81-6.64-1.03-10.43,2.49-5.31,5.68-10.48,7.02-16.12,1.77-7.51-5.17-7.9-9.39-10.11-2.7-1.41-4.3,.37-4.22,3.11,.45,15.81-7.2,29.2-12.41,45.39Z"/><path class="cls-1" d="M243.18,.04c3.28-.34,7.8,1.49,9.94,4.15,7.48,9.27,10.84,17.46,8.52,30.82-.79,4.55,3.81,6.22,7.42,8.23,19.72,10.97,30.81,29.61,35.48,51.56,3.47,12.8-5.22,50.72-20.99,47.34-5.32-3.71,.37-9.82,1.89-14.11,12.53-28.97,3.32-59.4-23.35-75-7.17-4.2-6.81-1.77-10.97-7.66-.91-1.29-.63-18.06-.77-19.67-1.1-12.81-16.26-14.73-19.05,1.8-2.13,26.38-18.68,17.6-37.22,19.02-.21,.02-.44,.02-.66,.02-16.98-.29-19.55-2.44-22.03-20-.96-12.94-17.06-10.4-13.85,2.04,5.61,10.34-5.66,22.16-11.37,9.33-12.68-24.22,29.36-51.12,37.58-18.7,1.84,5.38-.39,13.81,5.05,15.81,10.92,1.22,33.35,5.29,33.28-13.21-.06-5.01,.97-8.15,2.8-11.05,3.37-5.35,11.41-9.99,17.45-10.62l.84-.09Z"/><path class="cls-1" d="M186.8,123.29c-12.29,1.12-15.84-13.82-5.47-18.7,12.26-4.47,18.59,15.53,5.47,18.7Z"/></g></g></g></svg>