<svg xmlns="http://www.w3.org/2000/svg" viewBox="0 0 479.58 388.59"><defs><style>.cls-1,.cls-2{fill:none;stroke:#000;stroke-width:2px;}.cls-1{stroke-miterlimit:10;}.cls-2{stroke-linejoin:round;}</style></defs><g id="レイヤー_2" data-name="レイヤー 2"><g id="公園とタルト"><path d="M23.26,347.52a1.56,1.56,0,0,0,.34-.83c0-.17,0-.17-.5-1.34a1.39,1.39,0,0,1-.17-.67c0-.28.17-.45.5-.45a3.87,3.87,0,0,1,1.17.4,5.85,5.85,0,0,1,2.95,3.17,4.52,4.52,0,0,1,.56,1.78,1.73,1.73,0,0,1-.67,1.18l-.61.55c-6.74,6.13-8.81,7.58-14.16,10a1.17,1.17,0,0,1-.66.34.4.4,0,0,1-.45-.39c0-.23.33-.62.89-.9A63,63,0,0,0,23,347.91Zm3.9,29.09c6.75-1.28,7-1.28,11.2-2.34,2.79-.72,3.07-.78,6.13-1.5l-.94-2-.95-2a4.71,4.71,0,0,1-.22-.83c0-.11.11-.17.33-.17a2.89,2.89,0,0,1,1.12.5A42.43,42.43,0,0,1,50.35,373c1.5,2.95,2.17,4.9,2.17,6.41,0,1.78-.61,3.06-1.51,3.06-.61,0-1.33-.5-2.11-1.45s-1.56-2.39-3.85-7c-1.89.72-3.62,1.39-3.73,1.45L37.7,377l-10.26,3.9c-.56.22-1.89.83-3.84,1.78l-.78.17c-4.07-2.34-6-4.07-5.69-5.07,1.79,0,2.57,0,4,0a5.86,5.86,0,0,0,.9.06c1.17,0,1.56-.23,2.34-1.45,5.74-9.25,6.07-9.92,8.47-15.88l.11-.84a5,5,0,0,0-.5-2,.76.76,0,0,1-.06-.39c0-.39.22-.61.67-.61.72,0,1.39.34,3.12,1.51l.73,1.11a5.58,5.58,0,0,1,1.22,2.84c0,.11,0,.17,0,.23L36.92,364c-4.46,5.91-5.13,6.8-10,12.43Zm29-25.41a6.23,6.23,0,0,1,.84,2.56,1.34,1.34,0,0,1-1.12,1.45c-1,0-2.34-.83-6.07-3.68-.73-.5-3.18-2.56-7.47-6.12a3.14,3.14,0,0,1-.61-.9c0-.05.16-.16.33-.16a2.66,2.66,0,0,1,1.06.28,69.16,69.16,0,0,1,9.75,2.89A8.72,8.72,0,0,1,56.14,351.2Z"/><path d="M128.37,339.44c4,1.73,5.23,2.45,5.23,3l-.5,1.67v1.56c-.22,10.53-.28,15.1-.28,20.62,0,3.84.06,6.85.23,12.81a15.07,15.07,0,0,1-1,6.41c-.67,2.06-1.22,3.12-1.72,3.12-.17,0-.39-.17-.67-.39A28.69,28.69,0,0,0,125,383a181.86,181.86,0,0,0-23.4,1.68h-.39a12.26,12.26,0,0,1-3.07-.78c-.5.55-.83.78-1.33.78-1.4,0-2.73-2.34-2.73-4.85,0-.73.11-1.9.27-3.4.17-1.06.28-2.73.45-4.85.44-9,.56-11.15,1-23.46A6.52,6.52,0,0,0,95.6,346c-.45-.83-.56-1.06-.95-1.89a1.58,1.58,0,0,1-.05-.45c0-.22.11-.33.27-.33a2.2,2.2,0,0,1,.56.11l.67.22a31.94,31.94,0,0,0,4.12-.44c7.75-1.23,16.5-2.34,22.07-2.85a26.28,26.28,0,0,0,5.74-1ZM126.14,382c2.06-.17,2.28-.56,2.28-3.4v-5.74l.11-16.49V343.12c-.5-.72-.61-.78-1.67-.78s-1.73.17-2.06.17l-4.51.39-4.41.44c-.28.06-.89.11-1.72.17.55.61.55.67.55,1.62l-.11,1.56-.11,1.56c.5-.11,1-.28,1.11-.28a5.49,5.49,0,0,0,2.18-1h.33c2.57.17,3.9.79,3.9,1.68,0,.5-.5.78-1.5.94l-3.23.45-2.85.39v3.79c4.13-.72,4.85-1,6.86-2.12h.28c2.73.39,4.12,1.23,4.12,2.45,0,.51-.39.78-1.45.95a59,59,0,0,0-10.42,1.06l-7.24,1.34-3.4.61h-.28c-1.73-.78-2.23-1.06-2.23-1.34s.56-.55,1.51-.55c3.39-.56,4.12-.73,8.91-1.73V351c-1.67.39-1.89.45-3.62.73h-.28c-2.06-.34-2.73-.56-2.73-.89,0-.11.17-.28.5-.51,2.84-.61,3.18-.66,6.08-1.28v-2.39a2.57,2.57,0,0,0-.23-1.28c-.22-.67-.39-1-.55-1.4-1.84.22-3.13.39-3.74.5l-3.73.56c-.73.11-2.18.28-4.24.56l.23.28.11.55-.06,7.64-.33,22.57v5.57c.39,0,1.45-.06,3.28-.17l2.51-.11c1-.06,2.23-.17,6.52-.61a6.77,6.77,0,0,1-.94-2.51v-.28a18,18,0,0,0,.72-4.57c.06-.56.11-.94.11-1.22s0-.62-.11-1.12a38.4,38.4,0,0,1-9.36,6.35,1.65,1.65,0,0,1-.78.28c-.06,0-.11,0-.11-.16a.89.89,0,0,1,.16-.39,49.74,49.74,0,0,0,9.81-10.7,5.08,5.08,0,0,1-.78.05h-.45c-.27.45-.44.62-.66.62s-.62-.17-1.23-.67a52.35,52.35,0,0,1-3-6.24,1.87,1.87,0,0,1-.11-.51c0-.16.06-.16.67-.16l1.22.22c3.07-.22,4.18-.45,11.87-2.73l.28-.06c2.4.78,4.46,2,4.4,2.73a1.23,1.23,0,0,1-.11.39l-.16.39a23.94,23.94,0,0,1-2.79,5.13,2.07,2.07,0,0,0-.39.56l.17.11c1.5.61,2.45,1.5,2.45,2.4,0,.22-.17.39-.56.55a50.32,50.32,0,0,1-5.57,2.34l1.34.84a42.46,42.46,0,0,0,10.36,3.68c.39.11.61.22.61.28s-.22.39-.61.55a23.61,23.61,0,0,1-6.07,1.4l-.45-.12c-1.06-.94-2.06-1.83-2.39-2.17l-2.57-2.45a11,11,0,0,1-1-.84,3,3,0,0,0-1.39-.67c0,3.07,0,3.18-.06,6.69v.78c-.06.39-.06.45-.11.95,5.46-.5,6.13-.56,8.47-1.23l.56.06,2.11,1.11Zm-8.58-21.51c0-.28-.23-.33-1.4-.33-4.46,1-5.85,1.28-8.36,1.72.56,1.56.67,1.84,1.34,3.63,1.45-.28,2.84-.56,3.29-.67a27.29,27.29,0,0,1,4.18-.67c.5-1.67.55-1.95.89-3.4A.56.56,0,0,0,117.56,360.45Zm.44,6.47c-.72-.51-.84-.62-1.45-1.12-1.67.22-1.89.28-3.51.56a3.69,3.69,0,0,1,.11.44,5.72,5.72,0,0,0,.23.9,3.54,3.54,0,0,1,.16.72,2.55,2.55,0,0,1-.72,1.28,2.36,2.36,0,0,1,.56,1.51,3.87,3.87,0,0,1,1.05.33,18.45,18.45,0,0,1,1.4-1.28,9.29,9.29,0,0,0,1.84-1.95,2,2,0,0,0,.28-.67,2.56,2.56,0,0,0-.12-.45Z"/><path d="M198.58,348.69a17.73,17.73,0,0,1,1.84-.22c2,0,3.85.84,3.85,1.67a2.32,2.32,0,0,1-1.45,1.67l-.78.34a77.7,77.7,0,0,0-10.48,5.79c-4.34,2.9-4.34,2.9-5.23,3.51a9.77,9.77,0,0,1,0,1.12c0,1-.39,1.56-1.17,1.56a2.32,2.32,0,0,1-1.39-.73c-4.85,4.24-6.41,6.41-6.41,8.81a4.45,4.45,0,0,0,1.34,2.73c1.95,1.95,4.68,2.84,9,2.84,5.3,0,9.25-.61,11.59-1.78h.28a6.81,6.81,0,0,1,3.85,1.22c.67.51,1.06,1,1.06,1.4,0,.67-1,1.45-1.84,1.56l-.78.05a73.48,73.48,0,0,1-8.64.5c-6.41,0-10.2-.55-13.09-1.83s-4.91-3.9-4.91-6.52a12,12,0,0,1,2.79-6.3c.5-.61,1.61-1.73,3.17-3.23l1.4-1.4c-.45-1.17-.73-1.95-.84-2.17-1.11-3.18-2.67-7.47-4-11.2l-.28-.67a.9.9,0,0,0-.45-.61l-1.39-.89c-.17-.06-.39-.39-.72-.84l.33-.44c.84-.06,1.51-.12,2.17-.12a7.54,7.54,0,0,1,3.91,1.06c.5.39.5.39.5,1.95l.11.89a71,71,0,0,0,3.34,10.81,107.2,107.2,0,0,0,12.93-10.3Z"/><path d="M236.54,373.16c6,1.78,12,7,12,10.42a2.21,2.21,0,0,1-2.29,2.45c-1.39,0-1.89-.61-2.78-3.35s-2.9-5.57-7.08-9.19Z"/><path d="M306.81,342.84a7,7,0,0,1,4.07,1.79,3.12,3.12,0,0,1,1.06,1.5c0,.17-.06.33-.39.72a2.86,2.86,0,0,0-.5.73c-.34.56-.62,1.06-.95,1.56a2.11,2.11,0,0,0,1,.28,32.21,32.21,0,0,0,5.13-.95c3.51-.84,4-1,5.29-1.73h.28c2.9,1.06,4.68,2.06,4.63,2.73,0,.17-.17.39-.45.67a5.39,5.39,0,0,0-.78.73l-.22.44c-.56,1-1.28,2.18-1.62,2.84-7.3,13.77-17.5,23.85-29.87,29.65l-.33-.39a68.77,68.77,0,0,0,17.33-16.49l-1.62-1.12-.33-.28L307,364,305,361.9l-1.45-1.67a19.44,19.44,0,0,0-1.61-1.62c-2.06,1.95-3,2.56-7.3,5.3l-.34-.45a57.44,57.44,0,0,0,13.1-17.16l.11-.73a.85.85,0,0,0-.11-.5,3.87,3.87,0,0,0-.5-.72,3.36,3.36,0,0,1-.51-1.12ZM311,364a9.92,9.92,0,0,1,.5,1.61,66.51,66.51,0,0,0,8.75-14.71,1.19,1.19,0,0,0,.11-.44c0-.12-.11-.23-.44-.28-3.29.61-4,.78-6.69,1.45a13,13,0,0,1-1.67.27,3.39,3.39,0,0,1-.89-.22c-.84-.33-1.45-.56-1.84-.67-2,2.79-2.4,3.18-6.19,7a49.72,49.72,0,0,0,5.13,1.45l.28.11a8.92,8.92,0,0,1,1.11,1.34l1.12,1.89Z"/><path d="M368.34,355.05c-.56,10.25-4.29,17.6-12,23.85l-.33-.45c5.79-6.19,8.41-13.71,8.63-24.57v-.73a1.26,1.26,0,0,0-.44-.84,6.05,6.05,0,0,1-.84-1,2.55,2.55,0,0,1-.28-1l.39-.39c2.62.22,3.07.39,4.18,1.5a4.84,4.84,0,0,1,1.17,1.67l-.33,1.12Zm11.42-5c-.17,3-.28,5-.33,5.74l-.39,9c0,.28-.23,4.79-.51,9.19,0,.61.17.84.4.84a1.14,1.14,0,0,0,.44-.06c6.74-3.79,12.26-9,17.55-16.33l.39.4c-3.9,8.74-9.25,14.76-19.5,21.89h-.33a7.39,7.39,0,0,1-2.18-3.9v-.33c.56-1.17.67-2.73.78-9.47V349a3.13,3.13,0,0,0-.22-1.45,10.15,10.15,0,0,0-.95-1.34,3,3,0,0,1-.72-1.39l.39-.39a9.09,9.09,0,0,1,3.4,1.06c1.22.72,2.06,1.73,2.06,2.45l-.28,1.23Z"/><path d="M429.75,342.23a7,7,0,0,1,4.46,1.34c.89.55,1.39,1.17,1.39,1.61a1.35,1.35,0,0,1-.17.56c-.44,1.17-.55,3.34-.66,11.26,1.5.5,2.78.94,3.23,1.11,1.73.56,2.95,1,3.29,1.11s1.44.56,2.56,1l.45.22c2.78,2.68,4.17,4.85,4.17,6.41,0,.67-.33,1.17-.78,1.17-1.05,0-2.34-.78-4.18-2.56-4.56-4.24-6-5.46-8.74-7.14V380.4c0,2,0,2.12-.45,3a1.24,1.24,0,0,1-.89.67c-1.17,0-2.51-2-3.23-4.9v-.39a18.81,18.81,0,0,0,.83-5.07c.34-5.91.56-13,.56-19.67,0-3.46-.17-7.3-.28-7.92s-.22-.66-1.11-1.78a4.22,4.22,0,0,1-.84-1.62Z"/></g><g id="PLAY_AT_THE..." data-name="PLAY AT THE..."><path d="M67.41,117.09H55.53v28H63v-9.77h4.39a9.12,9.12,0,1,0,0-18.23Zm-.25,12.74H62.53v-6.74h4.63a3.37,3.37,0,1,1,0,6.74Z"/><polygon points="81.53 117.09 81.53 145.09 101.53 145.09 101.53 137.09 90.53 137.09 90.53 117.09 81.53 117.09"/><polygon points="104.53 145.09 119.64 117.09 122.53 124.09 112.53 145.09 104.53 145.09"/><polygon points="134.53 145.09 119.64 117.09 116.53 124.09 126.53 145.09 134.53 145.09"/><polygon points="114.65 136.57 126.75 136.57 126.75 142.43 113.53 142.43 113.53 136.57 114.65 136.57"/><path d="M142,129.09v16h7.49v-16Z"/><path d="M131.66,117.09,142,131.78l5.48-3.92-7.57-10.77Z"/><path d="M151.53,117.09,144,127.86l5.47,3.92,10.35-14.69Z"/><polygon points="169.71 145.09 184.81 117.09 187.71 124.09 177.71 145.09 169.71 145.09"/><polygon points="199.71 145.09 184.81 117.09 181.71 124.09 191.71 145.09 199.71 145.09"/><polygon points="179.83 136.57 191.92 136.57 191.92 142.43 178.71 142.43 178.71 136.57 179.83 136.57"/><path d="M205.17,123.09v22h7.5v-22Z"/><path d="M217.92,117.09h-18v7.5h18Z"/><path d="M240.86,123.09v22h7.5v-22Z"/><path d="M253.61,117.09h-18v7.5h18Z"/><path d="M262.15,117.09v28h7.49v-28Z"/><path d="M277.94,117.09v28h7.5v-28Z"/><path d="M282.54,127.34h-18v7.5h18Z"/><path d="M294.62,117.09v28h7.5v-28Z"/><path d="M312.66,128.34h-17v6.5h17Z"/><path d="M315,117.09H297v6.5h18Z"/><path d="M315,138.6H297v6.49h18Z"/><path d="M344.09,117.09H332.2v28h7.5v-9.77h4.39a9.12,9.12,0,0,0,0-18.23Zm-.26,12.74H339.2v-6.74h4.63a3.37,3.37,0,0,1,0,6.74Z"/><polygon points="352.2 145.09 367.31 117.09 370.2 124.09 360.2 145.09 352.2 145.09"/><polygon points="382.2 145.09 367.31 117.09 364.2 124.09 374.2 145.09 382.2 145.09"/><polygon points="362.32 136.57 374.42 136.57 374.42 142.43 361.2 142.43 361.2 136.57 362.32 136.57"/><path d="M397.4,117.09H385.52v28H393v-9.77h4.39a9.12,9.12,0,1,0,0-18.23Zm-.25,12.74h-4.63v-6.74h4.63a3.37,3.37,0,0,1,0,6.74Z"/><polygon points="400.52 145.09 408.39 145.09 399.58 133.24 393.32 134.71 400.52 145.09"/><path d="M414.84,117.09v28h7.49v-28Z"/><path d="M430.14,117.09l-10.3,12.12,5.09,4,13.22-16.15Z"/><path d="M420.25,129.83l9.94,15.26h8.27l-13.8-19.18Z"/><polygon points="63.74 176 55.4 176 68.76 202.77 72.08 194.34 63.74 176"/><polygon points="73.27 176 77.36 180.79 68.75 202.77 65.43 194.34 73.27 176"/><polygon points="85.95 176 94.29 176 80.93 202.77 77.6 194.34 85.95 176"/><polygon points="76.41 176 69.45 176 80.93 202.77 84.26 194.34 76.41 176"/><path d="M101.1,176v26.77h8.17V176Z"/><path d="M124.22,180.77v22h8.5v-22Z"/><path d="M137.47,176h-18v7.5h18Z"/><path d="M193.61,180.77v22h8.5v-22Z"/><path d="M206.86,176h-18v7.5h18Z"/><path d="M146.4,176v26.77h7.49V176Z"/><path d="M162.2,176v26.77h7.5V176Z"/><path d="M167,186.64H149v7.1h18Z"/><path d="M216.62,176v26.77h7.49V176Z"/><path d="M233.49,186.71H222.85v6.5h10.64Z"/><path d="M235.24,176H219v6.49h16.23Z"/><path d="M235.24,196.27H219v6.5h16.23Z"/><polygon points="241.25 202.77 255.36 175.96 258.25 182.96 249.25 202.77 241.25 202.77"/><polygon points="269.25 202.77 255.36 175.96 252.25 182.96 261.25 202.77 269.25 202.77"/><polygon points="250.37 194.69 262.47 194.69 262.47 200.55 249.25 200.55 249.25 194.69 250.37 194.69"/><path d="M323.47,180.77v22H332v-22Z"/><path d="M336.72,176h-18v7.5h18Z"/><polygon points="339.81 202.77 353.92 175.96 356.81 182.96 347.81 202.77 339.81 202.77"/><polygon points="367.81 202.77 353.92 175.96 350.81 182.96 359.81 202.77 367.81 202.77"/><polygon points="348.93 194.69 361.03 194.69 361.03 200.55 347.81 200.55 347.81 194.69 348.93 194.69"/><path d="M384.58,176H373.2v26.81h7.18v-9.36h4.2a8.73,8.73,0,1,0,0-17.45Zm-.24,12.2H379.9V181.7h4.44a3.23,3.23,0,0,1,0,6.46Z"/><polygon points="387.56 202.77 395.1 202.77 386.67 191.42 380.67 192.83 387.56 202.77"/><path d="M405.61,180.77v22h8.49v-22Z"/><path d="M418.86,176h-18v7.5h18Z"/><circle cx="434.52" cy="199.93" r="2.84"/><polygon points="433.71 195.56 435.17 195.56 439.03 176 430 176 433.71 195.56"/><path d="M306,189l-4-3.89-6,6.33-3.11-3.66,1.13-1.32a6.3,6.3,0,0,0-1-9.08,6.61,6.61,0,0,0-9.54,8.88l1,1.52-2.74,3.8a6.72,6.72,0,0,0,1.37,9.28,7.56,7.56,0,0,0,8.83.26l3.2-2.17a1.12,1.12,0,0,1,1.47.18l4.81,4.67,3.59-3.73-5-4.9Zm-17-8.65a2.16,2.16,0,1,1-2.17,2.16A2.16,2.16,0,0,1,289,180.34ZM290.09,197a2.73,2.73,0,0,1-3.86-3.87l1.55-1.57,4,3.76Z"/></g><g id="illust"><polyline class="cls-1" points="233.49 84.84 233.49 1.68 305.98 41.12 242.53 56.33"/><path class="cls-2" d="M.92,188.16s32.44,76.24,100.61,45.42c0,0,34.58,33.74,77.17,42.24,41.66,8.31,52.82,3.25,68.63,0,15.27-3.15,65.33-20.62,65.33-20.62s8.36-4,24.06-2.33,43.55,28.68,43.55,28.68-6.4-13.41-9.1-19a61.62,61.62,0,0,1-4.62-15.9l23,12.5a55.82,55.82,0,0,0,36.2,3.38,115.7,115.7,0,0,0,22.64-8.41c8.17-4.23,16.35-10.22,21.45-17.87a54.31,54.31,0,0,0,5.55-10,52.93,52.93,0,0,0,.88-33.82,26.67,26.67,0,0,0-1.3-3.35l-10.45-23"/></g></g></svg>